<svg width="404.375" height="404.375" xmlns="http://www.w3.org/2000/svg">

 <g>
  <title>background</title>
  <rect fill="none" id="canvas_background" height="402" width="582" y="-1" x="-1"/>
 </g>
 <g>
  <title>Layer 1</title>
  <path transform="rotate(-180 202.18812561035156,202.1876220703125) " stroke="null" id="svg_1" fill="#00BBD3" d="m108.669,404.375c-4.18,0 -7.837,-1.567 -10.971,-4.702c-6.269,-6.269 -6.269,-16.196 0,-21.943l176.065,-175.543l-176.065,-175.542c-6.269,-6.269 -6.269,-16.196 0,-21.943c6.269,-6.269 16.196,-6.269 21.943,0l187.037,186.514c3.135,3.135 4.702,6.792 4.702,10.971c0,4.18 -1.567,8.359 -4.702,10.971l-187.037,186.515c-3.135,3.135 -6.792,4.702 -10.972,4.702z"/>
  <g id="svg_2"/>
  <g id="svg_3"/>
  <g id="svg_4"/>
  <g id="svg_5"/>
  <g id="svg_6"/>
  <g id="svg_7"/>
  <g id="svg_8"/>
  <g id="svg_9"/>
  <g id="svg_10"/>
  <g id="svg_11"/>
  <g id="svg_12"/>
  <g id="svg_13"/>
  <g id="svg_14"/>
  <g id="svg_15"/>
  <g id="svg_16"/>
 </g>
</svg>